HIERARCHY
ROOT root
{
	OFFSET	0	13.1	24.9
	CHANNELS 6  Xposition Yposition Zposition Xrotation Yrotation Zrotation
	JOINT spine_1
	{
		OFFSET	0	9.99999	0
		CHANNELS 3  Xrotation Yrotation Zrotation
		JOINT spine_2
		{
			OFFSET	0	112	-10
			CHANNELS 3  Xrotation Yrotation Zrotation
			JOINT spine_3
			{
				OFFSET	0	206.5	19.3
				CHANNELS 3  Xrotation Yrotation Zrotation
				JOINT spine_4
				{
					OFFSET	0	110.4	14.6
					CHANNELS 3  Xrotation Yrotation Zrotation
					JOINT neck_1
					{
						OFFSET	0	71.8	-50.3
						CHANNELS 3  Xrotation Yrotation Zrotation
						JOINT neck_2
						{
							OFFSET	0	86.2	-25.8
							CHANNELS 3  Xrotation Yrotation Zrotation
							JOINT head_ee
							{
								OFFSET	0	179.8	-8.7
								CHANNELS 3  Xrotation Yrotation Zrotation
								End Site
								{
									OFFSET	1	0	0
								}
							}
						}
					}
					JOINT left_clavicle
					{
						OFFSET	-43.2	22.4	-70.8
						CHANNELS 3  Xrotation Yrotation Zrotation
						JOINT left_shoulder
						{
							OFFSET	-93.9	-5.79999	48.7
							CHANNELS 3  Xrotation Yrotation Zrotation
							JOINT left_elbow
							{
								OFFSET	-291.4	-30.8	15.2
								CHANNELS 3  Xrotation Yrotation Zrotation
								JOINT left_lowarm_twist
								{
									OFFSET	-110.7	-3.89999	13.6
									CHANNELS 3  Xrotation Yrotation Zrotation
									JOINT left_hand
									{
										OFFSET	-110.7	-3.89999	13.6
										CHANNELS 3  Xrotation Yrotation Zrotation
										JOINT left_ee
										{
											OFFSET	-80.8	-5.10001	12.1
											CHANNELS 3  Xrotation Yrotation Zrotation
											End Site
											{
												OFFSET	1	0	0
											}
										}
									}
								}
							}
						}
					}
					JOINT right_clavicle
					{
						OFFSET	43.2	22.4	-70.8
						CHANNELS 3  Xrotation Yrotation Zrotation
						JOINT right_shoulder
						{
							OFFSET	93.9	-5.79999	48.7
							CHANNELS 3  Xrotation Yrotation Zrotation
							JOINT right_elbow
							{
								OFFSET	291.4	-30.8	15.2
								CHANNELS 3  Xrotation Yrotation Zrotation
								JOINT right_lowarm_twist
								{
									OFFSET	110.7	-3.89999	13.6
									CHANNELS 3  Xrotation Yrotation Zrotation
									JOINT right_hand
									{
										OFFSET	110.7	-3.89999	13.6
										CHANNELS 3  Xrotation Yrotation Zrotation
										JOINT right_ee
										{
											OFFSET	80.8	-5.10001	12.1
											CHANNELS 3  Xrotation Yrotation Zrotation
											End Site
											{
												OFFSET	1	0	0
											}
										}
									}
								}
							}
						}
					}
				}
			}
		}
	}
	JOINT left_hip
	{
		OFFSET	-82.8	-127.5	0.300001
		CHANNELS 3  Xrotation Yrotation Zrotation
		JOINT left_knee
		{
			OFFSET	-28.2	-396.7	2.2
			CHANNELS 3  Xrotation Yrotation Zrotation
			JOINT left_ankle
			{
				OFFSET	-11.7	-411.3	35.4
				CHANNELS 3  Xrotation Yrotation Zrotation
				JOINT left_toes
				{
					OFFSET	0	-60	-88.6
					CHANNELS 3  Xrotation Yrotation Zrotation
					JOINT left_foot_ee
					{
						OFFSET	-22.5	-16.5	-42.2
						CHANNELS 3  Xrotation Yrotation Zrotation
						End Site
						{
							OFFSET	1	0	0
						}
					}
				}
			}
		}
	}
	JOINT right_hip
	{
		OFFSET	82.8	-127.5	0.300001
		CHANNELS 3  Xrotation Yrotation Zrotation
		JOINT right_knee
		{
			OFFSET	28.2	-396.7	2.2
			CHANNELS 3  Xrotation Yrotation Zrotation
			JOINT right_ankle
			{
				OFFSET	11.7	-411.3	35.4
				CHANNELS 3  Xrotation Yrotation Zrotation
				JOINT right_toes
				{
					OFFSET	0	-60	-88.6
					CHANNELS 3  Xrotation Yrotation Zrotation
					JOINT right_foot_ee
					{
						OFFSET	22.5	-16.5	-42.2
						CHANNELS 3  Xrotation Yrotation Zrotation
						End Site
						{
							OFFSET	1	0	0
						}
					}
				}
			}
		}
	}
}
MOTION
Frames: 15
Frame Time: 0.02
1216.95 688.07 -1488.6 -0.431903 77.622 0.15556 -0.893079 0.178116 1.97656 -0.890907 0.0520062 1.98389 -0.887589 -0.396434 1.94459 -0.892856 -0.0844113 1.98277 -7.41243 9.12338 -18.8729 -6.16121 30.4396 -17.4128 -0.0 0.0 -0.0 -4.51498 16.7892 -5.09487 17.1745 -25.092 72.71 2.61311 -52.3042 1.28327 22.3204 0.23925 -2.82321 3.76322 -6.2241 23.389 -0.0 0.0 -0.0 8.43657 -4.31817 -16.3151 -20.0818 25.7883 -62.2089 1.06691 27.8564 -0.264599 43.9435 0.570114 5.44891 1.35249 -25.484 -17.9746 0.0 0.0 0.0 -18.4348 37.3935 -2.65904 -10.2786 0.284846 1.54961 27.6736 -19.7067 -4.04414 -16.2581 0.0 0.0 -0.0 0.0 -0.0 27.7402 -1.58334 -5.50267 -3.8654 -0.139739 -0.576649 -2.73747 20.0489 -0.458941 -7.26334 0.0 0.0 0.0 0.0 0.0 
1194.94 685.273 -1493.97 -0.587343 77.3747 -0.499022 -0.782857 0.243337 2.04548 -0.780536 0.112713 2.05681 -0.774856 -0.349705 2.03001 -0.780606 -0.0247848 2.05975 -5.41809 8.62813 -19.4331 -3.81754 30.3215 -18.8196 -0.0 0.0 -0.0 -5.95039 20.9461 -6.21426 11.544 -28.8268 72.1224 2.57099 -51.8531 1.25004 21.4151 0.251066 -2.70818 4.45217 -7.65345 27.8727 -0.0 0.0 -0.0 8.25418 -5.43095 -15.9114 -18.8787 26.4847 -62.452 1.11982 29.0173 -0.289793 44.1084 0.580022 5.46753 1.40474 -27.4751 -18.8324 0.0 0.0 0.0 -17.7685 35.9579 -3.50701 -12.2206 0.307211 1.84672 22.2383 -18.4079 -3.32228 -16.5762 0.0 0.0 -0.0 0.0 -0.0 25.8323 -1.47935 -5.1146 -1.17692 -0.046668 -0.174581 -7.49177 20.6763 -1.27641 -8.52698 0.0 0.0 0.0 0.0 0.0 
1176.95 683.395 -1503.39 -3.66816 78.085 2.03002 -0.348935 0.30778 2.15637 -0.346364 0.169974 2.17157 -0.33834 -0.303081 2.15703 -0.344831 0.0413026 2.17782 -5.74699 9.55625 -17.8179 -4.39409 30.7518 -16.8007 -0.0 0.0 -0.0 -6.71437 23.253 -6.63339 8.63635 -28.8884 71.8489 2.43391 -50.3199 1.14337 20.1644 0.264396 -2.54898 4.69723 -8.84304 29.1627 -0.0 0.0 -0.0 8.90803 -4.61493 -17.217 -17.2992 26.2001 -62.1741 1.04538 27.3768 -0.254619 44.1858 0.584695 5.47627 1.33101 -28.448 -18.6626 0.0 0.0 0.0 -17.1152 36.5688 -3.89734 -13.7526 0.317742 2.08154 20.4389 -15.7031 -3.01974 -16.7097 0.0 0.0 -0.0 0.0 -0.0 24.6405 -1.42673 -5.11065 0.497322 0.020798 0.0734833 -4.45913 22.4016 -0.768424 -8.59394 0.0 0.0 0.0 0.0 0.0 
1156.57 680.769 -1514.5 -4.00357 76.6304 2.37086 -0.0157214 0.519132 2.10538 -0.0133372 0.384141 2.13413 0.00247251 -0.0728303 2.16719 -0.00398044 0.270269 2.15151 -4.00137 10.0573 -16.2449 -2.60045 30.7122 -15.6404 -0.0 0.0 -0.0 -7.19403 23.2606 -7.31491 6.00883 -29.9075 71.0737 2.23671 -47.9265 0.994232 19.0009 0.273674 -2.40066 4.9103 -9.02772 30.7209 -0.0 0.0 -0.0 9.42479 -2.84564 -18.3365 -16.8053 26.1801 -62.1034 0.987634 26.0694 -0.228649 44.4679 0.601819 5.50804 1.54316 -29.5862 -20.1794 0.0 0.0 0.0 -15.2595 34.9108 -4.97669 -17.0349 0.319154 2.58507 19.0398 -14.1003 -2.80179 -17.2659 0.0 0.0 -0.0 0.0 -0.0 22.9643 -1.43418 -6.11419 2.06865 0.090697 0.304455 -3.4712 22.7194 -0.598827 -8.12 0.0 0.0 0.0 0.0 0.0 
1134.13 686.975 -1523.86 -6.59478 76.2642 4.85335 0.168353 0.603551 2.15899 0.170826 0.46498 2.193 0.190128 0.00123839 2.24172 0.18329 0.355173 2.21342 -3.54394 10.2422 -16.0177 -2.09768 30.92 -15.5332 -0.0 0.0 -0.0 -7.46919 24.5932 -7.25657 3.84984 -28.9234 70.6639 2.13972 -46.6612 0.922949 18.3868 0.277357 -2.32231 5.09636 -9.60933 31.8788 -0.0 0.0 -0.0 9.77966 -3.25466 -19.0214 -16.1089 26.0656 -62.4851 0.967472 25.606 -0.219862 44.0489 0.576439 5.46081 1.41876 -29.638 -19.4767 0.0 0.0 0.0 -13.8549 35.205 -5.39688 -17.5555 0.316727 2.66491 16.8095 -14.5294 -2.50847 -17.7522 0.0 0.0 -0.0 0.0 -0.0 21.8537 -1.45061 -6.37986 2.87646 0.129096 0.422444 -4.41914 22.6549 -0.763499 -9.89587 0.0 0.0 0.0 0.0 0.0 
1101.92 703.291 -1533.78 -3.04989 77.0295 1.75795 0.417975 0.601538 2.14984 0.420427 0.463552 2.18374 0.439397 0.0114726 2.23235 0.432627 0.3638 2.20255 -3.04929 9.04748 -17.9694 -1.31539 30.3327 -18.0192 -0.0 0.0 -0.0 -6.89434 23.8558 -6.69673 0.716284 -26.5298 70.362 1.58497 -38.1343 0.547857 16.1106 0.283676 -2.03167 5.39239 -12.786 32.4673 -0.0 0.0 -0.0 10.0184 -3.28224 -19.4984 -17.4905 25.6166 -63.3083 0.825181 22.2332 -0.162145 42.5563 0.488862 5.29113 1.47182 -29.528 -19.7538 0.0 0.0 0.0 -11.9551 29.9517 -7.72404 -19.6598 0.299531 2.98731 17.4975 -12.7193 -2.57122 -19.8496 0.0 0.0 -0.0 0.0 -0.0 19.489 -2.27963 -6.72398 -1.98111 -0.0764869 -0.294397 1.32565 20.421 0.220618 -9.76998 0.0 0.0 0.0 0.0 0.0 
1087.65 707.849 -1537.03 -3.30832 77.0083 1.6124 0.52056 0.659769 2.09025 0.522837 0.525455 2.12797 0.543569 0.0874229 2.19012 0.537136 0.432133 2.14886 -2.91596 8.88969 -16.7798 -1.37481 29.1449 -16.7436 -0.0 0.0 -0.0 -5.77959 22.5789 -5.50153 -2.91075 -27.07 68.56 0.9787 -25.8645 0.224737 14.3479 0.280635 -1.80656 5.80597 -15.3271 34.2306 -0.0 0.0 -0.0 10.8746 -2.341 -21.3091 -18.0625 24.2375 -61.3237 0.715814 19.5242 -0.123156 42.6742 0.495616 5.30461 1.62696 -29.6523 -20.6798 0.0 0.0 0.0 -11.418 26.3741 -6.34061 -22.0836 0.265068 3.3576 18.1915 -8.15006 -2.59733 -21.2423 0.0 0.0 -0.0 0.0 -0.0 18.5148 -2.1029 -6.45111 -2.99356 -0.111628 -0.445801 4.33273 19.367 0.707288 -12.4435 0.0 0.0 0.0 0.0 0.0 
1068.21 707.694 -1542.0 -3.47709 77.7979 1.66321 0.548353 0.706583 2.11821 0.550668 0.570397 2.15885 0.573419 0.126445 2.22932 0.566801 0.476853 2.18141 -2.14803 7.50825 -17.8808 -0.450959 27.6372 -18.3701 -0.0 0.0 -0.0 -5.16944 21.7166 -4.8586 -5.74868 -25.8324 66.8707 0.624495 -17.1899 0.0943908 13.5091 0.276757 -1.6995 6.03351 -17.5727 34.6026 -0.0 0.0 -0.0 11.5064 -1.29769 -22.7067 -17.6419 23.41 -60.2673 0.674574 18.4778 -0.109729 42.5613 0.489145 5.29169 1.70919 -29.577 -21.1394 0.0 0.0 0.0 -11.1512 23.6179 -5.53938 -24.2602 0.220794 3.68865 20.1288 -6.68139 -2.82788 -22.1988 0.0 0.0 -0.0 0.0 -0.0 17.6702 -2.28758 -6.32515 -4.18999 -0.149695 -0.62547 7.76422 17.425 1.23123 -14.2949 0.0 0.0 0.0 0.0 0.0 
1063.83 712.088 -1546.19 -6.75994 78.2618 4.58004 0.790205 0.651545 2.06424 0.792427 0.518901 2.10149 0.812454 0.0964707 2.16243 0.806195 0.436698 2.12009 -8.18495 11.5221 -15.8673 -7.39948 32.599 -13.4781 -0.0 0.0 -0.0 -5.50105 23.2681 -4.91453 -4.32329 -25.1596 67.192 0.383161 -10.7475 0.0360423 12.6677 0.271291 -1.59216 5.96281 -16.5783 34.6881 -0.0 0.0 -0.0 11.4571 0.178861 -22.7152 -16.1203 27.7574 -60.2802 0.839869 22.5894 -0.167744 41.1776 0.411926 5.13242 2.8188 -30.0852 -27.8944 0.0 0.0 0.0 -9.08485 18.192 -5.195 -26.7145 0.15582 4.05967 19.5852 -0.128588 -2.70088 -24.6827 0.0 0.0 -0.0 0.0 -0.0 16.7617 -2.4729 -6.49219 -0.882968 -0.0353486 -0.13089 7.96044 16.2732 1.24974 -20.1958 0.0 0.0 0.0 0.0 0.0 
1056.93 712.887 -1549.33 -9.59701 78.1492 7.20616 1.00041 0.69203 2.2041 1.00295 0.550412 2.24364 1.02546 0.108083 2.30761 1.01834 0.471077 2.26162 -10.0194 11.2719 -16.9919 -9.38602 32.6193 -14.0431 -0.0 0.0 -0.0 -4.12005 21.7586 -3.33524 -6.71345 -24.1634 65.1848 0.196474 -5.55907 0.00953885 12.8869 0.272867 -1.62011 5.68262 -16.1806 32.7276 -0.0 0.0 -0.0 11.3192 3.25258 -22.5988 -11.5559 25.8196 -61.4559 0.852407 22.8921 -0.172591 42.6797 0.49593 5.30523 2.70822 -29.4263 -27.0998 0.0 0.0 0.0 -8.36825 16.4169 -4.57632 -27.6307 0.127497 4.19743 23.8948 0.30203 -3.22196 -24.6234 0.0 0.0 -0.0 0.0 -0.0 15.8875 -2.53809 -6.60166 1.1209 0.0477779 0.165368 9.03364 14.818 1.39698 -20.474 0.0 0.0 0.0 0.0 0.0 
1042.81 718.844 -1553.58 -2.53095 78.4994 0.0286478 0.688353 0.712046 2.33638 0.691214 0.561976 2.37693 0.715873 0.0805778 2.44109 0.707858 0.464979 2.39778 -12.2188 12.3373 -15.8069 -12.088 33.4452 -11.7489 -0.0 0.0 -0.0 -4.47864 22.6008 -3.64669 -7.34641 -23.5817 64.5269 0.27835 -7.85099 0.0191005 12.9595 0.273365 -1.62938 5.2505 -13.7546 30.8059 -0.0 0.0 -0.0 10.8731 5.15318 -21.7031 -9.80505 26.4113 -62.6856 0.992716 26.1857 -0.230887 42.9926 0.514001 5.34096 3.41495 -29.1633 -31.5699 0.0 0.0 0.0 -4.70316 9.71583 -5.65602 -29.3172 0.0696149 4.44976 23.4696 5.09152 -3.15278 -25.2582 0.0 0.0 -0.0 0.0 -0.0 13.3181 -2.48752 -6.36699 1.24895 0.0534415 0.1842 8.97743 16.0983 1.40207 -22.2695 0.0 0.0 0.0 0.0 0.0 
1033.88 724.637 -1564.12 1.54996 80.9702 -4.09141 0.346855 0.395358 2.50511 0.350315 0.235202 2.52517 0.3622 -0.284964 2.52005 0.353357 0.116474 2.53342 -14.8503 13.3966 -16.3465 -15.2117 35.2691 -10.9621 -0.0 0.0 -0.0 -4.09811 22.3981 -3.15628 -8.15164 -23.3771 62.7311 0.280468 -7.90997 0.0193908 12.8839 0.272847 -1.61974 4.95313 -12.0206 29.4753 -0.0 0.0 -0.0 10.5564 6.09631 -21.0376 -8.12245 26.8361 -63.5927 1.05831 27.6654 -0.260593 42.8773 0.50732 5.3278 3.72267 -28.8806 -33.594 0.0 0.0 0.0 -2.74008 5.09499 -5.7137 -29.5117 0.0624599 4.47876 24.5252 8.45964 -3.27703 -25.4611 0.0 0.0 -0.0 0.0 -0.0 11.9745 -1.3032 -6.41337 1.24995 0.0534861 0.184347 8.88147 14.1102 1.36727 -23.4795 0.0 0.0 0.0 0.0 0.0 
1025.12 730.326 -1567.26 0.0749259 82.4333 -2.56044 0.271693 0.292425 2.59502 0.275431 0.126762 2.60835 0.282769 -0.411796 2.57878 0.273489 0.000497713 2.61143 -16.2886 13.9744 -16.2295 -16.987 35.9864 -10.0826 -0.0 0.0 -0.0 -4.16287 22.5946 -3.20225 -9.22936 -23.2074 61.1916 0.338221 -9.51145 0.0281381 12.883 0.27284 -1.61962 4.72552 -10.7818 28.3896 -0.0 0.0 -0.0 10.2885 6.83055 -20.4673 -6.83639 27.1134 -63.4791 1.12621 29.1559 -0.292902 42.9483 0.51143 5.3359 3.96232 -28.5448 -35.2109 0.0 0.0 0.0 -1.34453 1.73032 -5.7723 -30.4249 0.0275563 4.61456 25.1873 10.6758 -3.3607 -25.6039 0.0 0.0 -0.0 0.0 -0.0 10.7967 -0.468024 -6.25088 1.42984 0.0615149 0.210783 8.75315 13.618 1.34354 -24.3045 0.0 0.0 0.0 0.0 0.0 
1011.75 729.671 -1573.3 5.06454 84.3693 -7.47215 0.326373 0.156851 2.68453 0.330382 -0.0142281 2.68907 0.331152 -0.564303 2.62928 0.321533 -0.142133 2.68535 -17.2802 14.3602 -16.0909 -18.2252 36.418 -9.41145 -0.0 0.0 -0.0 -4.34515 23.0975 -3.33944 -10.6648 -22.875 59.5228 0.372238 -10.4479 0.0340334 12.7025 0.271549 -1.5966 4.52949 -9.7321 27.4361 -0.0 0.0 -0.0 10.1652 6.58808 -20.1982 -5.53143 26.8472 -63.363 1.17861 30.2775 -0.31888 43.543 0.546262 5.40356 4.19046 -28.0203 -36.7812 0.0 0.0 0.0 -0.26047 -1.14699 -5.75586 -31.3369 -0.0094581 4.74962 25.6594 11.6764 -3.42016 -25.7964 0.0 0.0 -0.0 0.0 -0.0 9.45804 0.156175 -6.38036 1.35212 0.0580357 0.199365 8.68322 13.8162 1.33499 -24.9852 0.0 0.0 0.0 0.0 0.0 
998.11 728.782 -1575.26 9.26614 85.0933 -11.3432 0.197823 0.213678 2.69991 0.201878 0.0415066 2.70803 0.205497 -0.519411 2.65811 0.19565 -0.0932544 2.70674 -17.1698 14.102 -16.6576 -18.0145 36.268 -10.1216 -0.0 0.0 -0.0 -4.33448 23.458 -3.23844 -11.6891 -22.312 59.0206 0.410279 -11.4885 0.0412716 12.7159 0.271648 -1.59831 4.18694 -8.61579 25.4114 -0.0 0.0 -0.0 10.1109 5.8805 -20.0729 -4.92215 26.57 -62.9889 1.25535 31.8746 -0.358492 44.1956 0.58529 5.47738 4.02816 -25.3969 -35.3048 0.0 0.0 0.0 0.651637 -3.24218 -5.6553 -31.3473 -0.00989364 4.75116 26.4614 14.3925 -3.53144 -25.9466 0.0 0.0 -0.0 0.0 -0.0 8.10304 0.540749 -6.683 1.05892 0.0450509 0.156248 14.5068 13.8326 2.17764 -25.7401 0.0 0.0 0.0 0.0 0.0 
